# xmcd CD database file
#
# Track frame offsets:
#	150
#	18147
#	34275
#	51700
#	65245
#	78272
#	95577
#	115715
#	122705
#	132957
#	146215
#	167167
#	178127
#	186525
#
# Disc length: 2736 seconds
#
# Revision: 0
# Processed by: cddbd v1.5.2PL0 Copyright (c) Steve Scherf et al.
# Submitted via: CDex 1.70beta2
#
DISCID=d50aae0e
DTITLE=Eri Esitt‰ji‰ - Hyllyjen v‰liss‰ hiljaa - Kirjastolauluja
DYEAR=1993
DGENRE=Kotimainen
TTITLE0=Hyllyjen v‰liss‰ hiljaa - Tuula Amberla
TTITLE1=Matka Charlien kanssa - Katriina Honkanen
TTITLE2=Kovaa peli‰ kirjastossa - Mikko Perkoila
TTITLE3=Mieleist‰ kirjaa - Jukka Vuolle
TTITLE4=Bokmalen - Barbara Helsingius
TTITLE5=L‰s mig - Pasi Hiihtola
TTITLE6=Hyllyt t‰ynn‰ aarteita - Pentti Rasinkangas
TTITLE7=Kirjastolaulu - Matti Pellonp‰‰
TTITLE8=Kirjalaisen laulu - Kari V‰‰n‰nen
TTITLE9=Waltarin kohdalla - Tuula Amberla
TTITLE10=Kirjastossa - Tarharyhm‰
TTITLE11=Kunnollinen kunnallinen kirjastojenkka - Tuomo Holopainen
TTITLE12=Kirjasto ja sivistys - M.A Numminen
TTITLE13=Kirjasto ja sin‰... - Jukka Hynninen
EXTD=YEAR: 1993
EXTT0=
EXTT1=
EXTT2=
EXTT3=
EXTT4=
EXTT5=
EXTT6=
EXTT7=
EXTT8=
EXTT9=
EXTT10=
EXTT11=
EXTT12=
EXTT13=
PLAYORDER=
